<svg version="1.1" id="svg8" xmlns="http://www.w3.org/2000/svg" x="0" y="0" viewBox="0 0 3492.7 3492.7" style="enable-background:new 0 0 3492.7 3492.7" xml:space="preserve"><style>.st0{fill:#fad214}.st1{fill:none;stroke:#000;stroke-width:72;stroke-miterlimit:10}</style><g id="layer1" transform="translate(0 935.16)"><path id="rect815" class="st0" d="M50.6 703 1638.1-884.5c59.8-59.8 156.7-59.8 216.5 0L3442.1 703c59.8 59.8 59.8 156.7 0 216.5L1854.6 2506.9c-59.8 59.8-156.7 59.8-216.5 0L50.6 919.5c-59.7-59.8-59.7-156.7 0-216.5z"/><path id="rect9557" d="M86.7 739.1 1674.2-848.4c39.9-39.9 104.5-39.9 144.3 0L3406 739.1c39.9 39.9 39.9 104.5 0 144.3L1818.5 2470.9c-39.9 39.9-104.5 39.9-144.3 0L86.7 883.4c-39.8-39.9-39.8-104.5 0-144.3z"/><path id="rect9559" class="st0" d="M134.8 787.2 1722.3-800.3c13.3-13.3 34.8-13.3 48.1 0L3357.9 787.2c13.3 13.3 13.3 34.8 0 48.1L1770.4 2422.8c-13.3 13.3-34.8 13.3-48.1 0L134.8 835.3c-13.3-13.3-13.3-34.9 0-48.1z"/></g><path d="M910.4 1666.4h320v689.1h-320zm453.1-187h320v876.1h-320zm445.8 376.1h320v500h-320zm453-451.9h320v951.9h-320z"/><circle cx="1070.4" cy="1295" r="80"/><path class="st1" d="m1067.3 1300.5 447.8-252.2"/><circle cx="1520.5" cy="1065.5" r="80"/><path class="st1" d="m1523.5 1054.5 423.6 325.2"/><circle cx="1947.1" cy="1356.7" r="80"/><path class="st1" d="m1947.1 1378.7 475.2-323.2"/><circle cx="2422.3" cy="1060.5" r="80"/></svg>