<?xml version="1.0" encoding="UTF-8" standalone="no"?>
<!-- Created with Inkscape (http://www.inkscape.org/) -->

<svg
   width="210mm"
   height="210mm"
   viewBox="0 0 210 210"
   version="1.1"
   id="svg371"
   sodipodi:docname="MUI.svg"
   inkscape:version="1.2 (dc2aeda, 2022-05-15)"
   xmlns:inkscape="http://www.inkscape.org/namespaces/inkscape"
   xmlns:sodipodi="http://sodipodi.sourceforge.net/DTD/sodipodi-0.dtd"
   xmlns="http://www.w3.org/2000/svg"
   xmlns:svg="http://www.w3.org/2000/svg">
  <sodipodi:namedview
     id="namedview373"
     pagecolor="#ffffff"
     bordercolor="#000000"
     borderopacity="0.25"
     inkscape:showpageshadow="2"
     inkscape:pageopacity="0.0"
     inkscape:pagecheckerboard="0"
     inkscape:deskcolor="#d1d1d1"
     inkscape:document-units="mm"
     showgrid="false"
     inkscape:zoom="0.2102413"
     inkscape:cx="85.615908"
     inkscape:cy="563.63806"
     inkscape:window-width="1313"
     inkscape:window-height="725"
     inkscape:window-x="291"
     inkscape:window-y="220"
     inkscape:window-maximized="0"
     inkscape:current-layer="svg371" />
  <defs
     id="defs368" />
  <path
     style="fill:#027fff;stroke:none;stroke-width:0.299642"
     d="m 19.223614,27.522826 c -3.856395,0.84529 -3.895354,4.114981 -3.895354,7.331341 0,7.307366 -0.299638,14.578188 -0.299638,21.873854 v 43.148447 11.386402 c 0,1.89793 -0.255301,3.97895 0.758994,5.68122 1.093694,1.8353 3.449475,2.7582 5.23385,3.78117 4.168911,2.38995 8.39866,5.51102 12.884604,7.25374 7.60372,2.95418 6.891771,-7.30018 6.891771,-11.62222 V 84.59473 c 0,-3.791073 -1.117964,-9.184029 2.101986,-11.917365 4.05865,-3.445285 11.663265,3.064741 15.277248,5.206286 4.957576,2.93799 9.982875,5.769005 14.982105,8.635081 2.407616,1.380456 4.858685,3.222057 7.790685,2.379462 2.50201,-0.719141 4.937202,-2.638047 7.191409,-3.919624 5.412138,-3.077017 10.774258,-6.241542 16.180686,-9.328152 2.67641,-1.52758 6.62868,-4.977055 9.88819,-3.770393 2.77559,1.027465 3.58252,3.732035 3.59541,6.422222 0.0275,5.692901 2.9e-4,11.386696 2.9e-4,17.079601 0,1.88115 0.35808,5.488242 -0.60766,7.127572 -1.31783,2.23744 -6.15525,3.87828 -8.3816,5.15775 -6.98704,4.0155 -14.051128,7.92224 -20.974954,12.0459 -2.204762,1.31304 -6.642767,2.77529 -8.081943,4.91683 -0.587895,0.87435 -0.308031,2.41272 -0.308031,3.41292 v 8.68962 11.3864 c 0,1.68729 -0.349083,3.84022 0.43657,5.39236 1.450275,2.86517 6.17682,4.512 8.85233,6.03898 7.49256,4.27679 14.993208,8.5407 22.473168,12.83967 4.48834,2.57962 8.98357,5.14785 13.48389,7.70649 2.2584,1.28397 4.45178,2.90293 7.19141,2.37945 5.14066,-0.98253 11.08076,-5.941 15.58139,-8.58444 10.52343,-6.18072 21.27638,-11.97669 31.76205,-18.22123 3.36109,-2.00191 6.7869,-3.90403 10.18783,-5.83763 1.65882,-0.94297 3.69848,-1.77777 4.66932,-3.516 1.27767,-2.28806 0.72424,-5.55955 0.72424,-8.08583 v -17.0796 -26.068852 c 0,-3.20588 0.36047,-7.484459 -3.5957,-8.522423 -2.39445,-0.628348 -4.29777,0.580704 -6.29249,1.714851 -3.40634,1.936584 -6.78479,3.921122 -10.18783,5.863692 -1.69837,0.96935 -3.86718,1.86857 -4.86379,3.65264 -1.37146,2.454962 -0.82941,5.979062 -0.82941,8.677622 v 16.48032 c 0,2.38156 0.53696,5.54158 -0.34399,7.79069 -0.81412,2.07802 -2.9275,3.10969 -4.74993,4.15004 l -10.18782,5.86429 c -5.09631,2.92182 -10.17525,5.87569 -15.28175,8.77893 -2.15502,1.22523 -4.68879,3.26728 -7.1914,3.61487 -2.06423,0.28676 -3.99033,-1.10627 -5.6932,-2.07742 -4.33072,-2.47084 -11.48737,-4.96836 -14.55691,-8.94881 -3.27629,-4.24861 2.13884,-7.36429 5.26801,-9.15825 6.00033,-3.4399 11.97159,-6.93042 17.97852,-10.35893 2.57901,-1.47214 6.4414,-2.87477 8.19431,-5.3531 1.18568,-1.6768 0.79495,-4.04577 0.79495,-5.98835 V 98.378258 48.03842 34.254879 c 0,-2.416007 -0.005,-4.828425 -2.40163,-6.167533 -4.53148,-2.531376 -11.76485,3.855795 -15.57689,6.041383 -11.58925,6.643967 -23.15664,13.325386 -34.758498,19.947463 -3.55226,2.027977 -9.211593,7.110808 -13.48389,5.10171 C 62.734027,52.442859 49.137179,43.200391 35.404284,35.327305 32.004843,33.378433 28.595209,31.448135 25.216447,29.463906 23.415005,28.405874 21.420584,27.041296 19.223614,27.522826 M 188.52138,27.82217 c -4.76492,1.13144 -9.89299,5.596411 -14.08318,8.110708 -1.80084,1.080807 -3.79767,2.104388 -4.33493,4.314845 -1.03465,4.257314 -0.1597,9.703614 -0.1597,14.08317 0,2.244614 -0.43748,5.031279 0.24092,7.191408 0.71674,2.282667 3.14294,3.591809 5.45227,3.19747 1.9378,-0.331099 3.75392,-1.677093 5.39356,-2.692882 3.9343,-2.437888 13.08597,-5.552957 13.7281,-10.692412 0.5091,-4.074836 0.0554,-8.478073 0.0554,-12.584967 0,-2.362678 0.4243,-5.205674 -0.23642,-7.491047 -0.76349,-2.640742 -3.40303,-4.066148 -6.05606,-3.436293 z"
     id="path357" />
</svg>
