<?xml version="1.0" encoding="UTF-8" standalone="no"?>
<!-- Created with Inkscape (http://www.inkscape.org/) -->

<svg
   version="1.1"
   id="svg597"
   width="225"
   height="225"
   viewBox="0 0 225 225"
   sodipodi:docname="visx.svg"
   inkscape:version="1.2 (dc2aeda, 2022-05-15)"
   xmlns:inkscape="http://www.inkscape.org/namespaces/inkscape"
   xmlns:sodipodi="http://sodipodi.sourceforge.net/DTD/sodipodi-0.dtd"
   xmlns="http://www.w3.org/2000/svg"
   xmlns:svg="http://www.w3.org/2000/svg">
  <defs
     id="defs601" />
  <sodipodi:namedview
     id="namedview599"
     pagecolor="#ffffff"
     bordercolor="#000000"
     borderopacity="0.25"
     inkscape:showpageshadow="2"
     inkscape:pageopacity="0.0"
     inkscape:pagecheckerboard="0"
     inkscape:deskcolor="#d1d1d1"
     showgrid="false"
     inkscape:zoom="1.0488889"
     inkscape:cx="-10.963983"
     inkscape:cy="113.93008"
     inkscape:window-width="1334"
     inkscape:window-height="949"
     inkscape:window-x="0"
     inkscape:window-y="38"
     inkscape:window-maximized="0"
     inkscape:current-layer="g603" />
  <g
     inkscape:groupmode="layer"
     inkscape:label="Image"
     id="g603">
    <path
       style="fill:#ff1231;stroke:none;stroke-width:0.916883"
       d="M 49.680358,9.7241384 C 31.118069,12.389363 15.867288,24.884852 10.948434,43.256154 7.903099,54.630084 9.3375253,67.347154 9.3375253,79.014578 V 141.3626 c 0,18.95837 -2.8458571,39.71293 9.0994907,55.92985 7.824784,10.623 20.030233,16.91922 33.077107,18.18177 23.392244,2.26378 48.007796,0.15587 71.516847,0.15587 17.84162,0 37.42531,2.24728 55.01297,-0.8472 17.39142,-3.05963 31.41515,-16.02252 35.98122,-33.07746 3.1174,-11.64441 1.61096,-24.72832 1.61096,-36.6753 V 80.848344 c 0,-18.236522 2.38389,-37.594757 -9.09914,-53.179195 -7.85218,-10.655543 -20.01646,-16.918036 -33.07746,-18.1820098 -22.4948,-2.17683 -46.15954,-0.1556443 -68.7662,-0.1556443 -17.880773,0 -37.315384,-2.1484306 -55.012962,0.3926435 M 180.79458,43.256154 180.2417,77.180813 169.79198,89.100287 145.95303,112.02235 v 0.91688 l 23.83895,22.92208 10.44972,11.91947 0.55288,33.00778 c -9.25685,0 -28.15746,3.57034 -35.75842,-2.12535 -8.78832,-6.58503 -15.59709,-16.01702 -23.83895,-23.28606 -2.23261,-1.96855 -5.96433,-6.63365 -9.16882,-6.62815 -3.44474,0.005 -6.9729,5.0887 -9.16883,7.28371 -7.397509,7.39649 -14.547726,16.35536 -22.922073,22.6305 -7.740232,5.80021 -27.237834,2.12535 -36.675307,2.12535 l 0.553247,-32.09089 9.270692,-11.00259 25.017602,-24.75585 C 70.453527,104.98894 62.992853,96.911487 55.181655,89.100287 51.49496,85.413595 45.665238,81.281021 43.815427,76.26393 41.379636,69.657516 43.259063,59.429048 43.26218,52.42498 c 9.16e-4,-2.263966 -0.572502,-5.786078 0.942372,-7.698696 1.708611,-2.157333 5.827156,-1.469029 8.226454,-1.47013 7.004067,-0.0032 17.232535,-1.882543 23.838949,0.553247 9.355871,3.449497 18.686345,17.216215 25.672715,24.202586 2.36373,2.364181 6.39159,8.200964 10.08572,8.200964 3.69412,0 7.72107,-5.836783 10.0857,-8.200964 7.35524,-7.355141 14.49959,-16.406149 22.92207,-22.524507 7.89253,-5.733634 26.28061,-2.231326 35.75842,-2.231326 M 49.680358,49.674333 81.767675,83.598992 109.27774,112.02235 v 0.91688 l -28.436849,29.34026 -30.24365,32.09089 45.844134,-43.74907 16.503895,-13.43599 16.50388,14.92593 44.92725,42.25913 c -11.63249,-16.51305 -28.97624,-31.3583 -43.10724,-45.84413 -3.2586,-3.34113 -14.74714,-11.40511 -14.07781,-16.5039 0.68216,-5.19414 10.18748,-11.70006 13.56345,-15.587001 13.33789,-15.353016 31.00621,-28.319663 42.70472,-44.92725 -15.87033,11.179458 -30.26538,27.536552 -44.01037,41.25972 -3.65744,3.651485 -11.71134,15.091881 -17.42076,14.701291 C 106.45649,107.08769 99.417857,96.476608 95.524492,92.849879 80.559866,78.909962 66.375325,61.434546 49.680358,49.674333 Z"
       id="path724" />
  </g>
</svg>
