<?xml version="1.0" encoding="UTF-8"?>
<!-- Generator: Adobe Illustrator 15.0.0, SVG Export Plug-In . SVG Version: 6.00 Build 0)  -->
<!DOCTYPE svg PUBLIC "-//W3C//DTD SVG 1.1//EN" "http://www.w3.org/Graphics/SVG/1.1/DTD/svg11.dtd">
<svg version="1.1" xmlns="http://www.w3.org/2000/svg" xmlns:xlink="http://www.w3.org/1999/xlink" x="0px" y="0px" width="103.711px" height="97.838px" viewBox="0 0 103.711 97.838" enable-background="new 0 0 103.711 97.838" xml:space="preserve">
<g id="Layer_1">
</g>
<g id="Layer_2">
	<g>
		<g>
			<defs>
				<rect id="SVGID_1_" x="24.936" y="20.881" width="55.096" height="55.096"/>
			</defs>
			<use xlink:href="#SVGID_1_" overflow="visible" fill="#FFFFFF"/>
			<clipPath id="SVGID_2_">
				<use xlink:href="#SVGID_1_" overflow="visible"/>
			</clipPath>
			<path clip-path="url(#SVGID_2_)" stroke="#000000" stroke-width="1.8" d="M29.075,21.781c0,0-3.24,0-3.24,3.24v46.815     c0,0,0,3.24,3.24,3.24h46.815c0,0,3.24,0,3.24-3.24V25.021c0,0,0-3.24-3.24-3.24H29.075z"/>
		</g>
		<circle fill="#FFFFFF" cx="53.06" cy="50.004" r="15.521"/>
		<circle fill="#FFFFFF" stroke="#000000" stroke-miterlimit="10" cx="53.059" cy="50.004" r="11.314"/>
		<g id="g2358_1_">
			<path id="path2360_1_" fill="#FFFFFF" d="M36.164,43.351c0,1.006-0.742,2.084-1.705,2.084v18.294c0,2.412-2.661,2.412-2.661,0     V45.435c-0.937,0-1.753-0.892-1.753-2.228v-8.031c0-0.813,0.951-0.845,0.951,0.032v6.908h0.797v-6.971     c0-0.748,0.918-0.796,0.918,0.031v6.94h0.823v-6.963c0-0.78,0.891-0.812,0.891,0.032v6.932h0.81v-6.963     c0-0.772,0.931-0.804,0.931,0.032L36.164,43.351z"/>
			<path id="path2362_1_" fill="#FFFFFF" d="M75.266,37.345v26.374c0,2.357-2.666,2.322-2.666,0V48.657h-1.42V37.345     C71.18,33.641,75.266,33.641,75.266,37.345z"/>
		</g>
	</g>
</g>
<g id="Layer_3">
</g>
</svg>