<?xml version="1.0" encoding="utf-8"?>
<!-- Generator: Adobe Illustrator 25.2.0, SVG Export Plug-In . SVG Version: 6.00 Build 0)  -->
<svg version="1.1"
	 id="svg8" inkscape:version="0.92.2 (5c3e80d, 2017-08-06)" xmlns:cc="http://creativecommons.org/ns#" xmlns:dc="http://purl.org/dc/elements/1.1/" xmlns:inkscape="http://www.inkscape.org/namespaces/inkscape" xmlns:rdf="http://www.w3.org/1999/02/22-rdf-syntax-ns#" xmlns:sodipodi="http://sodipodi.sourceforge.net/DTD/sodipodi-0.dtd" xmlns:svg="http://www.w3.org/2000/svg"
	 xmlns="http://www.w3.org/2000/svg" xmlns:xlink="http://www.w3.org/1999/xlink" x="0px" y="0px" viewBox="0 0 3492.7 3492.7"
	 style="enable-background:new 0 0 3492.7 3492.7;" xml:space="preserve">
<style type="text/css">
	.st0{fill:#FAD214;}
	.st1{fill:none;stroke:#000000;stroke-width:72;stroke-miterlimit:10;}
</style>
<g id="layer1" transform="translate(0,935.15997)" inkscape:groupmode="layer" inkscape:label="Layer 1">
	<path id="rect815" class="st0" d="M50.6,703L1638.1-884.5c59.8-59.8,156.7-59.8,216.5,0L3442.1,703c59.8,59.8,59.8,156.7,0,216.5
		L1854.6,2506.9c-59.8,59.8-156.7,59.8-216.5,0L50.6,919.5C-9.1,859.7-9.1,762.8,50.6,703z"/>
	<path id="rect9557" d="M86.7,739.1L1674.2-848.4c39.9-39.9,104.5-39.9,144.3,0L3406,739.1c39.9,39.9,39.9,104.5,0,144.3
		L1818.5,2470.9c-39.9,39.9-104.5,39.9-144.3,0L86.7,883.4C46.9,843.5,46.9,778.9,86.7,739.1z"/>
	<path id="rect9559" class="st0" d="M134.8,787.2L1722.3-800.3c13.3-13.3,34.8-13.3,48.1,0L3357.9,787.2c13.3,13.3,13.3,34.8,0,48.1
		L1770.4,2422.8c-13.3,13.3-34.8,13.3-48.1,0L134.8,835.3C121.5,822,121.5,800.4,134.8,787.2z"/>
</g>
<rect x="910.4" y="1666.4" width="320" height="689.1"/>
<rect x="1363.5" y="1479.4" width="320" height="876.1"/>
<rect x="1809.3" y="1855.5" width="320" height="500"/>
<rect x="2262.3" y="1403.6" width="320" height="951.9"/>
<circle cx="1070.4" cy="1295" r="80"/>
<line class="st1" x1="1067.3" y1="1300.5" x2="1515.1" y2="1048.3"/>
<circle cx="1520.5" cy="1065.5" r="80"/>
<line class="st1" x1="1523.5" y1="1054.5" x2="1947.1" y2="1379.7"/>
<circle cx="1947.1" cy="1356.7" r="80"/>
<line class="st1" x1="1947.1" y1="1378.7" x2="2422.3" y2="1055.5"/>
<circle cx="2422.3" cy="1060.5" r="80"/>
</svg>
